<svg xmlns="http://www.w3.org/2000/svg" version="1.1" width="3300" height="2000"><g id="Notes"><style>
    text {
      font-family: monospace;
      text-anchor: middle;
    }
    text.emphasis {
      font-weight:bold;
    }
    text.lanchor {
      text-anchor: start;
    }
  </style><rect height="2200" id="artboard" fill="white" width="3300" x="0" y="0"/><line id="" style="fill:none;stroke:black;stroke-width:0.5;" x1="263" x2="3036" y1="292" y2="292"/><text class="lanchor emphasis" transform="matrix(1 0 0 1 263 322)">Weight/Scale Variations</text><text transform="matrix(1 0 0 1 559.711 322)">Ultralight</text><text transform="matrix(1 0 0 1 856.422 322)">Thin</text><text transform="matrix(1 0 0 1 1153.13 322)">Light</text><text transform="matrix(1 0 0 1 1449.84 322)">Regular</text><text transform="matrix(1 0 0 1 1746.56 322)">Medium</text><text transform="matrix(1 0 0 1 2043.27 322)">Semibold</text><text transform="matrix(1 0 0 1 2339.98 322)">Bold</text><text transform="matrix(1 0 0 1 2636.69 322)">Heavy</text><text transform="matrix(1 0 0 1 2933.4 322)">Black</text><text id="template-version" style="text-anchor: end;" transform="matrix(1 0 0 1 3036 1933)">Template v.1.0</text><text class="lanchor" transform="matrix(1 0 0 1 263 726)">Small</text><text class="lanchor" transform="matrix(1 0 0 1 263 1156)">Medium</text><text class="lanchor" transform="matrix(1 0 0 1 263 1586)">Large</text></g><g id="Guides"><g id="H-reference" style="fill:#27AAE1;stroke:none;" transform="matrix(1 0 0 1 339 696)"><path d="M 54.9316 0 L 57.666 0 L 30.5664 -70.459 L 28.0762 -70.459 L 0.976562 0 L 3.66211 0 L 12.9395 -24.4629 L 45.7031 -24.4629 Z M 29.1992 -67.0898 L 29.4434 -67.0898 L 44.8242 -26.709 L 13.8184 -26.709 Z"/></g><line id="Baseline-S" style="fill:none;stroke:#27AAE1;opacity:1;stroke-width:0.577;" x1="263" x2="3036" y1="696" y2="696"/><line id="Capline-S" style="fill:none;stroke:#27AAE1;opacity:1;stroke-width:0.577;" x1="263" x2="3036" y1="625.541" y2="625.541"/><g id="H-reference" style="fill:#27AAE1;stroke:none;" transform="matrix(1 0 0 1 339 1126)"><path d="M 54.9316 0 L 57.666 0 L 30.5664 -70.459 L 28.0762 -70.459 L 0.976562 0 L 3.66211 0 L 12.9395 -24.4629 L 45.7031 -24.4629 Z M 29.1992 -67.0898 L 29.4434 -67.0898 L 44.8242 -26.709 L 13.8184 -26.709 Z"/></g><line id="Baseline-M" style="fill:none;stroke:#27AAE1;opacity:1;stroke-width:0.577;" x1="263" x2="3036" y1="1126" y2="1126"/><line id="Capline-M" style="fill:none;stroke:#27AAE1;opacity:1;stroke-width:0.577;" x1="263" x2="3036" y1="1055.54" y2="1055.54"/><g id="H-reference" style="fill:#27AAE1;stroke:none;" transform="matrix(1 0 0 1 339 1556)"><path d="M 54.9316 0 L 57.666 0 L 30.5664 -70.459 L 28.0762 -70.459 L 0.976562 0 L 3.66211 0 L 12.9395 -24.4629 L 45.7031 -24.4629 Z M 29.1992 -67.0898 L 29.4434 -67.0898 L 44.8242 -26.709 L 13.8184 -26.709 Z"/></g><line id="Baseline-L" style="fill:none;stroke:#27AAE1;opacity:1;stroke-width:0.577;" x1="263" x2="3036" y1="1556" y2="1556"/><line id="Capline-L" style="fill:none;stroke:#27AAE1;opacity:1;stroke-width:0.577;" x1="263" x2="3036" y1="1485.54" y2="1485.54"/><rect height="119.336" id="left-margin" style="fill:darkred;stroke:none;opacity:0.4;" width="12.4512" x="1394.06" y="1030.79"/><rect height="119.336" id="right-margin" style="fill:darkgreen;stroke:none;opacity:0.4;" width="12.4512" x="1502.5112" y="1030.79"/><rect x="1406.5112" y="1045" width="96" height="96" fill="none" stroke="blue" stroke-dasharray="5"/><rect x="1394.06" y="1030.79" width="120.9024" height="119.336" fill="none" stroke="blue"/></g><g id="Symbols"><g id="Bold-L" transform="matrix(1 0 0 1 2266 1556)"><path d="M21.769 33.301 V-57.966 Q21.769 -64.215 26.139 -68.67 Q30.508 -73.124 36.926 -73.124 H86.591 Q92.84 -73.124 97.295 -68.67 Q101.749 -64.215 101.749 -57.966 V33.301 L61.759 13.79 L21.769 33.301 Z M36.926 7.985  61.759 -3.464  86.591 7.985 V-57.966 Q86.591 -57.966 86.591 -57.966 Q86.591 -57.966 86.591 -57.966 H36.926 Q36.926 -57.966 36.926 -57.966 Q36.926 -57.966 36.926 -57.966 V7.985 Z M117.874 5.728 V-88.765 Q117.874 -88.765 117.874 -88.765 Q117.874 -88.765 117.874 -88.765 H42.248 V-104.084 H117.874 Q124.358 -104.084 128.776 -99.667 Q133.192 -95.249 133.192 -88.765 V5.728 H117.874 Z"/></g><g id="Semibold-L" transform="matrix(1 0 0 1 1970.27 1556)"><path d="M23.522 31.548 V-60.77 Q23.522 -66.037 27.227 -69.791 Q30.933 -73.545 36.296 -73.545 H89.605 Q94.873 -73.545 98.627 -69.791 Q102.379 -66.037 102.379 -60.77 V31.548 L62.95 12.178 L23.522 31.548 Z M36.296 10.439  62.95 -2.272  89.605 10.439 V-60.77 Q89.605 -60.77 89.605 -60.77 Q89.605 -60.77 89.605 -60.77 H36.296 Q36.296 -60.77 36.296 -60.77 Q36.296 -60.77 36.296 -60.77 V10.439 Z M118.504 4.816 V-89.395 Q118.504 -89.395 118.504 -89.395 Q118.504 -89.395 118.504 -89.395 H43.789 V-102.262 H118.504 Q123.904 -102.262 127.637 -98.529 Q131.37 -94.796 131.37 -89.395 V4.816 H118.504 Z"/></g><g id="Medium-L" transform="matrix(1 0 0 1 1674.31 1556)"><path d="M24.836 30.234 V-62.873 Q24.836 -67.404 28.043 -70.632 Q31.25 -73.861 35.822 -73.861 H91.867 Q96.398 -73.861 99.625 -70.632 Q102.853 -67.404 102.853 -62.873 V30.234 L63.844 10.968 L24.836 30.234 Z M35.822 12.279  63.844 -1.379  91.867 12.279 V-62.873 Q91.867 -62.873 91.867 -62.873 Q91.867 -62.873 91.867 -62.873 H35.822 Q35.822 -62.873 35.822 -62.873 Q35.822 -62.873 35.822 -62.873 V12.279 Z M118.978 4.133 V-89.87 Q118.978 -89.87 118.978 -89.87 Q118.978 -89.87 118.978 -89.87 H44.947 V-100.894 H118.978 Q123.566 -100.894 126.784 -97.676 Q130.003 -94.457 130.003 -89.87 V4.133 H118.978 Z"/></g><g id="Regular-L" transform="matrix(1 0 0 1 1378.56 1556)"><path d="M25.8 29.27 V-64.416 Q25.8 -68.407 28.643 -71.25 Q31.484 -74.091 35.475 -74.091 H93.525 Q97.516 -74.091 100.359 -71.25 Q103.2 -68.407 103.2 -64.416 V29.27 L64.5 10.081 L25.8 29.27 Z M35.475 13.629  64.5 -0.722  93.525 13.629 V-64.416 Q93.525 -64.416 93.525 -64.416 Q93.525 -64.416 93.525 -64.416 H35.475 Q35.475 -64.416 35.475 -64.416 Q35.475 -64.416 35.475 -64.416 V13.629 Z M119.325 3.631 V-90.216 Q119.325 -90.216 119.325 -90.216 Q119.325 -90.216 119.325 -90.216 H45.795 V-99.891 H119.325 Q123.316 -99.891 126.159 -97.05 Q129 -94.207 129 -90.216 V3.631 H119.325 Z"/></g><g id="Light-L" transform="matrix(1 0 0 1 1082.77 1556)"><path d="M29.025 26.045 V-61.997 Q29.025 -65.85 31.774 -68.575 Q34.524 -71.3 38.328 -71.3 H91.603 Q95.407 -71.3 98.156 -68.575 Q100.905 -65.85 100.905 -61.997 V26.045 L64.997 7.911 L29.025 26.045 Z M36.344 13.938  64.997 -0.35  93.586 13.938 V-61.997 Q93.586 -62.865 93.028 -63.425 Q92.47 -63.982 91.603 -63.982 H38.328 Q37.46 -63.982 36.902 -63.425 Q36.344 -62.865 36.344 -61.997 V13.938 Z M118.456 1.77 V-87.301 Q118.456 -88.17 117.898 -88.728 Q117.34 -89.286 116.472 -89.286 H48.152 V-96.603 H116.472 Q120.276 -96.603 123.026 -93.878 Q125.775 -91.155 125.775 -87.301 V1.77 H118.456 Z"/></g><g id="Thin-L" transform="matrix(1 0 0 1 787.282 1556)"><path d="M32.25 22.82 V-59.579 Q32.25 -63.294 34.906 -65.901 Q37.562 -68.509 41.18 -68.509 H89.679 Q93.299 -68.509 95.955 -65.901 Q98.611 -63.294 98.611 -59.579 V22.82 L65.492 5.74 L32.25 22.82 Z M37.212 14.25  65.492 0.022  93.649 14.25 V-59.579 Q93.649 -61.315 92.533 -62.431 Q91.416 -63.549 89.679 -63.549 H41.18 Q39.445 -63.549 38.328 -62.431 Q37.212 -61.315 37.212 -59.579 V14.25 Z M117.588 -0.09 V-84.387 Q117.588 -86.124 116.472 -87.24 Q115.355 -88.355 113.62 -88.355 H50.508 V-93.317 H113.62 Q117.238 -93.317 119.894 -90.71 Q122.55 -88.101 122.55 -84.387 V-0.09 H117.588 Z"/></g><g id="Ultralight-L" transform="matrix(1 0 0 1 491.205 1556)"><path d="M34.185 20.885 V-58.127 Q34.185 -61.76 36.786 -64.297 Q39.385 -66.835 42.892 -66.835 H88.526 Q92.033 -66.835 94.634 -64.297 Q97.234 -61.76 97.234 -58.127 V20.885 L65.79 4.438 L34.185 20.885 Z M37.733 14.435  65.79 0.245  93.686 14.435 V-58.127 Q93.686 -60.385 92.235 -61.836 Q90.784 -63.287 88.526 -63.287 H42.892 Q40.635 -63.287 39.184 -61.836 Q37.733 -60.385 37.733 -58.127 V14.435 Z M117.068 -1.206 V-82.637 Q117.068 -84.895 115.616 -86.346 Q114.165 -87.797 111.907 -87.797 H51.922 V-91.345 H111.907 Q115.415 -91.345 118.016 -88.807 Q120.615 -86.27 120.615 -82.637 V-1.206 H117.068 Z"/></g><g id="Bold-M" transform="matrix(1 0 0 1 2281.8 1126)"><path d="M15.75 19.02 V-48.48 Q15.75 -55.105 20.312 -59.667 Q24.875 -64.23 31.5 -64.23 H62.75 Q69.375 -64.23 73.938 -59.667 Q78.5 -55.105 78.5 -48.48 V19.02 L47.125 3.645 L15.75 19.02 Z M31.5 -6.23  47.125 -13.98  62.75 -6.23 V-48.48 Q62.75 -48.48 62.75 -48.48 Q62.75 -48.48 62.75 -48.48 H31.5 Q31.5 -48.48 31.5 -48.48 Q31.5 -48.48 31.5 -48.48 V-6.23 Z M88.5 -2.98 V-73.73 Q88.5 -73.73 88.5 -73.73 Q88.5 -73.73 88.5 -73.73 H31.375 V-89.48 H88.5 Q95.125 -89.48 99.688 -84.917 Q104.25 -80.355 104.25 -73.73 V-2.98 H88.5 Z"/></g><g id="Semibold-M" transform="matrix(1 0 0 1 1985.97 1126)"><path d="M17.598 17.173 V-51.415 Q17.598 -56.952 21.454 -60.809 Q25.31 -64.665 30.848 -64.665 H65.903 Q71.44 -64.665 75.296 -60.809 Q79.153 -56.952 79.153 -51.415 V17.173 L48.375 1.96 L17.598 17.173 Z M30.848 -3.676  48.375 -12.73  65.903 -3.676 V-51.415 Q65.903 -51.415 65.903 -51.415 Q65.903 -51.415 65.903 -51.415 H30.848 Q30.848 -51.415 30.848 -51.415 Q30.848 -51.415 30.848 -51.415 V-3.676 Z M89.153 -3.959 V-74.382 Q89.153 -74.382 89.153 -74.382 Q89.153 -74.382 89.153 -74.382 H32.951 V-87.632 H89.153 Q94.69 -87.632 98.546 -83.776 Q102.403 -79.92 102.403 -74.382 V-3.959 H89.153 Z"/></g><g id="Medium-M" transform="matrix(1 0 0 1 1689.91 1126)"><path d="M18.984 15.786 V-53.616 Q18.984 -58.339 22.31 -61.665 Q25.636 -64.991 30.359 -64.991 H68.266 Q72.989 -64.991 76.315 -61.665 Q79.641 -58.339 79.641 -53.616 V15.786 L49.312 0.696 L18.984 15.786 Z M30.359 -1.76  49.312 -11.792  68.266 -1.76 V-53.616 Q68.266 -53.616 68.266 -53.616 Q68.266 -53.616 68.266 -53.616 H30.359 Q30.359 -53.616 30.359 -53.616 Q30.359 -53.616 30.359 -53.616 V-1.76 Z M89.641 -4.692 V-74.871 Q89.641 -74.871 89.641 -74.871 Q89.641 -74.871 89.641 -74.871 H34.134 V-86.246 H89.641 Q94.364 -86.246 97.69 -82.92 Q101.016 -79.594 101.016 -74.871 V-4.692 H89.641 Z"/></g><g id="Regular-M" transform="matrix(1 0 0 1 1394.06 1126)"><path d="M20 14.77 V-55.23 Q20 -59.355 22.938 -62.292 Q25.875 -65.23 30 -65.23 H70 Q74.125 -65.23 77.062 -62.292 Q80 -59.355 80 -55.23 V14.77 L50 -0.23 L20 14.77 Z M30 -0.355  50 -11.105  70 -0.355 V-55.23 Q70 -55.23 70 -55.23 Q70 -55.23 70 -55.23 H30 Q30 -55.23 30 -55.23 Q30 -55.23 30 -55.23 V-0.355 Z M90 -5.23 V-75.23 Q90 -75.23 90 -75.23 Q90 -75.23 90 -75.23 H35 V-85.23 H90 Q94.125 -85.23 97.062 -82.292 Q100 -79.355 100 -75.23 V-5.23 H90 Z"/></g><g id="Light-M" transform="matrix(1 0 0 1 1098.18 1126)"><path d="M22.5 12.27 V-54.076 Q22.5 -57.816 25.149 -60.465 Q27.799 -63.115 31.539 -63.115 H69.183 Q72.922 -63.115 75.573 -60.465 Q78.221 -57.816 78.221 -54.076 V12.27 L50.385 -1.865 L22.5 12.27 Z M30 0.703  50.385 -10.095  70.721 0.703 V-54.076 Q70.721 -54.749 70.289 -55.182 Q69.856 -55.615 69.183 -55.615 H31.539 Q30.865 -55.615 30.433 -55.182 Q30 -54.749 30 -54.076 V0.703 Z M90 -6.624 V-73.691 Q90 -74.365 89.567 -74.797 Q89.135 -75.23 88.461 -75.23 H36.971 V-82.73 H88.461 Q92.201 -82.73 94.851 -80.081 Q97.5 -77.431 97.5 -73.691 V-6.624 H90 Z"/></g><g id="Thin-M" transform="matrix(1 0 0 1 802.565 1126)"><path d="M25 9.77 V-52.922 Q25 -56.277 27.36 -58.639 Q29.721 -60.999 33.078 -60.999 H68.365 Q71.721 -60.999 74.081 -58.639 Q76.442 -56.277 76.442 -52.922 V9.77 L50.769 -3.499 L25 9.77 Z M30 1.76  50.769 -9.086  71.442 1.76 V-52.922 Q71.442 -54.269 70.578 -55.134 Q69.711 -55.999 68.365 -55.999 H33.078 Q31.731 -55.999 30.865 -55.134 Q30 -54.269 30 -52.922 V1.76 Z M90 -8.019 V-72.152 Q90 -73.499 89.135 -74.365 Q88.269 -75.23 86.922 -75.23 H38.943 V-80.23 H86.922 Q90.279 -80.23 92.64 -77.87 Q95 -75.509 95 -72.152 V-8.019 H90 Z"/></g><g id="Ultralight-M" transform="matrix(1 0 0 1 506.415 1126)"><path d="M26.5 8.27 V-52.23 Q26.5 -55.355 28.688 -57.542 Q30.875 -59.73 34 -59.73 H67.875 Q71 -59.73 73.188 -57.542 Q75.375 -55.355 75.375 -52.23 V8.27 L51 -4.48 L26.5 8.27 Z M30 2.395  51 -8.48  71.875 2.395 V-52.23 Q71.875 -53.98 70.75 -55.105 Q69.625 -56.23 67.875 -56.23 H34 Q32.25 -56.23 31.125 -55.105 Q30 -53.98 30 -52.23 V2.395 Z M90 -8.855 V-71.23 Q90 -72.98 88.875 -74.105 Q87.75 -75.23 86 -75.23 H40.125 V-78.73 H86 Q89.125 -78.73 91.312 -76.542 Q93.5 -74.355 93.5 -71.23 V-8.855 H90 Z"/></g><g id="Bold-S" transform="matrix(1 0 0 1 2294.23 696)"><path d="M15.583 3.628 V-44.134 Q15.583 -49.037 18.953 -52.391 Q22.322 -55.744 27.226 -55.744 H48.748 Q53.652 -55.744 57.005 -52.376 Q60.358 -49.008 60.358 -44.106 V3.628 L37.971 -7.325 L15.583 3.628 Z M27.221 -15.11  37.971 -20.375  48.721 -15.11 V-44.106 Q48.721 -44.106 48.721 -44.106 Q48.721 -44.106 48.721 -44.106 H27.221 Q27.221 -44.106 27.221 -44.106 Q27.221 -44.106 27.221 -44.106 V-15.11 Z M67.46 -9.785 V-62.45 Q67.46 -62.45 67.46 -62.45 Q67.46 -62.45 67.46 -62.45 H25.544 V-74.088 H67.46 Q72.361 -74.088 75.729 -70.72 Q79.097 -67.352 79.097 -62.45 V-9.785 H67.46 Z"/></g><g id="Semibold-S" transform="matrix(1 0 0 1 1998.1 696)"><path d="M17.04 2.171 V-46.45 Q17.04 -50.495 19.853 -53.291 Q22.665 -56.087 26.712 -56.087 H51.235 Q55.281 -56.087 58.077 -53.276 Q60.873 -50.466 60.873 -46.422 V2.171 L38.957 -8.655 L17.04 2.171 Z M26.706 -13.096  38.957 -19.389  51.208 -13.096 V-46.422 Q51.208 -46.422 51.208 -46.422 Q51.208 -46.422 51.208 -46.422 H26.706 Q26.706 -46.422 26.706 -46.422 Q26.706 -46.422 26.706 -46.422 V-13.096 Z M67.974 -10.557 V-62.965 Q67.974 -62.965 67.974 -62.965 Q67.974 -62.965 67.974 -62.965 H26.788 V-72.631 H67.974 Q72.018 -72.631 74.829 -69.82 Q77.64 -67.009 77.64 -62.965 V-10.557 H67.974 Z"/></g><g id="Medium-S" transform="matrix(1 0 0 1 1701.85 696)"><path d="M18.134 1.077 V-48.186 Q18.134 -51.589 20.528 -53.967 Q22.922 -56.345 26.326 -56.345 H53.101 Q56.503 -56.345 58.881 -53.952 Q61.259 -51.559 61.259 -48.159 V1.077 L39.697 -9.652 L18.134 1.077 Z M26.32 -11.584  39.697 -18.649  53.073 -11.584 V-48.159 Q53.073 -48.159 53.073 -48.159 Q53.073 -48.159 53.073 -48.159 H26.32 Q26.32 -48.159 26.32 -48.159 Q26.32 -48.159 26.32 -48.159 V-11.584 Z M68.36 -11.136 V-63.351 Q68.36 -63.351 68.36 -63.351 Q68.36 -63.351 68.36 -63.351 H27.721 V-71.537 H68.36 Q71.761 -71.537 74.153 -69.144 Q76.546 -66.752 76.546 -63.351 V-11.136 H68.36 Z"/></g><g id="Regular-S" transform="matrix(1 0 0 1 1405.73 696)"><path d="M18.936 0.275 V-49.46 Q18.936 -52.391 21.024 -54.462 Q23.111 -56.533 26.043 -56.533 H54.469 Q57.4 -56.533 59.471 -54.447 Q61.542 -52.361 61.542 -49.432 V0.275 L40.239 -10.382 L18.936 0.275 Z M26.037 -10.475  40.239 -18.107  54.441 -10.475 V-49.432 Q54.441 -49.432 54.441 -49.432 Q54.441 -49.432 54.441 -49.432 H26.037 Q26.037 -49.432 26.037 -49.432 Q26.037 -49.432 26.037 -49.432 V-10.475 Z M68.643 -11.56 V-63.634 Q68.643 -63.634 68.643 -63.634 Q68.643 -63.634 68.643 -63.634 H28.404 V-70.735 H68.643 Q71.572 -70.735 73.658 -68.649 Q75.744 -66.563 75.744 -63.634 V-11.56 H68.643 Z"/></g><g id="Light-S" transform="matrix(1 0 0 1 1109.75 696)"><path d="M20.909 -1.697 V-48.549 Q20.909 -51.177 22.769 -53.02 Q24.629 -54.864 27.256 -54.864 H53.824 Q56.451 -54.864 58.295 -53.005 Q60.139 -51.147 60.139 -48.522 V-1.697 L40.543 -11.672 L20.909 -1.697 Z M26.037 -9.641  40.543 -17.31  55.01 -9.641 V-48.522 Q55.01 -49.052 54.669 -49.395 Q54.328 -49.736 53.796 -49.736 H27.251 Q26.719 -49.736 26.378 -49.395 Q26.037 -49.052 26.037 -48.522 V-9.641 Z M68.643 -12.66 V-62.42 Q68.643 -62.952 68.302 -63.293 Q67.961 -63.634 67.429 -63.634 H29.959 V-68.762 H67.429 Q70.054 -68.762 71.913 -66.904 Q73.772 -65.045 73.772 -62.42 V-12.66 H68.643 Z"/></g><g id="Thin-S" transform="matrix(1 0 0 1 814.015 696)"><path d="M22.881 -3.67 V-47.639 Q22.881 -49.963 24.513 -51.579 Q26.145 -53.195 28.47 -53.195 H53.179 Q55.503 -53.195 57.119 -51.564 Q58.735 -49.933 58.735 -47.611 V-3.67 L40.846 -12.961 L22.881 -3.67 Z M26.037 -8.806  40.846 -16.514  55.579 -8.806 V-47.611 Q55.579 -48.674 54.897 -49.356 Q54.213 -50.039 53.151 -50.039 H28.465 Q27.403 -50.039 26.719 -49.356 Q26.037 -48.674 26.037 -47.611 V-8.806 Z M68.643 -13.76 V-61.206 Q68.643 -62.268 67.961 -62.952 Q67.277 -63.634 66.215 -63.634 H31.515 V-66.79 H66.215 Q68.537 -66.79 70.169 -65.16 Q71.799 -63.528 71.799 -61.206 V-13.76 H68.643 Z"/></g><g id="Ultralight-S" transform="matrix(1 0 0 1 517.792 696)"><path d="M24.065 -4.853 V-47.093 Q24.065 -49.235 25.561 -50.714 Q27.056 -52.193 29.199 -52.193 H52.792 Q54.934 -52.193 56.413 -50.699 Q57.893 -49.205 57.893 -47.065 V-4.853 L41.028 -13.736 L24.065 -4.853 Z M26.037 -8.305  41.028 -16.036  55.92 -8.305 V-47.065 Q55.92 -48.446 55.033 -49.333 Q54.145 -50.221 52.764 -50.221 H29.193 Q27.812 -50.221 26.925 -49.333 Q26.037 -48.446 26.037 -47.065 V-8.305 Z M68.643 -14.42 V-60.478 Q68.643 -61.859 67.755 -62.746 Q66.868 -63.634 65.487 -63.634 H32.448 V-65.606 H65.487 Q67.627 -65.606 69.121 -64.112 Q70.615 -62.618 70.615 -60.478 V-14.42 H68.643 Z"/></g></g></svg>